<svg xmlns="http://www.w3.org/2000/svg" width="52.079" height="59.522" viewBox="0 0 52.079 59.522">
  <g id="Group_642" data-name="Group 642" transform="translate(297.51 -115.268)">
    <path id="Path_1040" data-name="Path 1040" d="M-264.033,159.93h-5.577v.644q0,6.1,0,12.2a1.856,1.856,0,0,1-2.5,1.884,1.8,1.8,0,0,1-1.22-1.68c-.012-.193,0-.387,0-.581V146.922h-5.577v.588c0,1.588,0,3.176,0,4.765a1.872,1.872,0,0,1-2.062,2.049q-7.235,0-14.469,0a1.875,1.875,0,0,1-2.066-2.045q0-7.264,0-14.527a1.857,1.857,0,0,1,2.026-2.024q7.264-.006,14.527,0a1.876,1.876,0,0,1,2.044,2.067c0,1.761,0,3.522,0,5.327h5.577v-.674q0-12.464,0-24.929a3.711,3.711,0,0,1,.051-.808,1.853,1.853,0,0,1,1.982-1.434,1.861,1.861,0,0,1,1.682,1.9c.011,2.828,0,5.656,0,8.484v.73h5.577v-3.419c0-.678-.007-1.356,0-2.034a1.843,1.843,0,0,1,1.93-1.943q7.351-.011,14.7,0a1.853,1.853,0,0,1,1.963,1.971q.01,5.52,0,11.041c0,1.2.007,2.4,0,3.6a1.849,1.849,0,0,1-1.955,1.98q-7.351.01-14.7,0a1.845,1.845,0,0,1-1.938-1.937c-.01-1.8,0-3.6,0-5.451h-5.538v25.954h5.537v-.6q0-2.353,0-4.707a1.879,1.879,0,0,1,2.07-2.1q7.235,0,14.469,0a1.876,1.876,0,0,1,2.059,2.052q.005,7.235,0,14.469a1.879,1.879,0,0,1-2.094,2.076q-7.205,0-14.411,0a1.884,1.884,0,0,1-2.093-2.077C-264.036,163.506-264.033,161.745-264.033,159.93Zm3.763-37.194V133.82h11.084V122.736Zm-33.491,27.837h11.094V139.489h-11.094Zm33.49,1.92v11.084h11.086V152.493Z" fill="#1f1d59"/>
  </g>
</svg>
