<svg width="50" height="50" viewBox="0 0 50 50" fill="none" xmlns="http://www.w3.org/2000/svg">
<path d="M0.0769043 24.9999C0.0769043 18.3899 2.70271 12.0507 7.37668 7.37668C12.0507 2.70271 18.3899 0.0769043 24.9999 0.0769043C28.2728 0.0769043 31.5137 0.721557 34.5375 1.97405C37.5613 3.22655 40.3088 5.06237 42.6231 7.37668C44.9374 9.691 46.7733 12.4385 48.0258 15.4623C49.2783 18.4861 49.9229 21.727 49.9229 24.9999C49.9229 31.6099 47.2971 37.9492 42.6231 42.6231C37.9492 47.2971 31.6099 49.9229 24.9999 49.9229C18.3899 49.9229 12.0507 47.2971 7.37668 42.6231C2.70271 37.9492 0.0769043 31.6099 0.0769043 24.9999Z" fill="#1F1D59"/>
</svg>
