<svg xmlns="http://www.w3.org/2000/svg" width="44.688" height="44.687" viewBox="0 0 44.688 44.687">
  <g id="Group_842" data-name="Group 842" transform="translate(383.003 -92.266)">
    <path id="Path_1065" data-name="Path 1065" d="M-360.655,92.266a22.383,22.383,0,0,1,22.339,22.348,22.383,22.383,0,0,1-22.348,22.339A22.383,22.383,0,0,1-383,114.605,22.383,22.383,0,0,1-360.655,92.266Zm-.021,41.893a19.583,19.583,0,0,0,19.566-19.522,19.583,19.583,0,0,0-19.511-19.576A19.584,19.584,0,0,0-380.208,114.6,19.583,19.583,0,0,0-360.676,134.159Z" transform="translate(0 0)" fill="#1f1d59"/>
    <path id="Path_1066" data-name="Path 1066" d="M-254.884,157.71V124.153c5.914.181,10.814,2.387,13.979,7.444a16.58,16.58,0,0,1,.052,18.581C-244.011,155.289-248.928,157.517-254.884,157.71Z" transform="translate(-105.755 -26.321)" fill="#1f1d59"/>
  </g>
</svg>
