<svg xmlns="http://www.w3.org/2000/svg" width="42.316" height="42.321" viewBox="0 0 42.316 42.321">
  <g id="Group_640" data-name="Group 640" transform="translate(361.52 -196.246)">
    <path id="Path_1027" data-name="Path 1027" d="M-347.376,231.042h-.5c-3.25,0-6.5.006-9.749,0a3.586,3.586,0,0,1-3.494-2.113,4.15,4.15,0,0,1-.386-1.707q-.035-13.57-.012-27.14a3.708,3.708,0,0,1,3.844-3.825q6.258-.017,12.517,0A3.8,3.8,0,0,1-341.271,200c.133,1.243.3,2.481.463,3.771h17.646a3.63,3.63,0,0,1,3.566,2.135,4.162,4.162,0,0,1,.374,1.71q.034,13.549.013,27.1a3.707,3.707,0,0,1-3.827,3.843q-10,.017-19.994,0a3.79,3.79,0,0,1-3.856-3.726c-.129-1.19-.284-2.377-.43-3.565A1.845,1.845,0,0,0-347.376,231.042Zm4.776,5.039h19.386c1.078,0,1.526-.45,1.526-1.531q0-13.382,0-26.764c0-1.084-.447-1.534-1.523-1.534h-17.265c.007.115.008.183.017.251q.537,4.321,1.075,8.641.886,7.146,1.777,14.293a1.556,1.556,0,0,1-.393,1.327c-.432.481-.849.976-1.272,1.466Zm2.365-7.52c-.009-.109-.012-.175-.02-.241q-.707-5.673-1.414-11.346-1.05-8.459-2.1-16.918a1.327,1.327,0,0,0-1.512-1.325H-357.5c-1.082,0-1.532.448-1.532,1.526q0,13.385,0,26.769c0,1.084.447,1.534,1.524,1.534h17.278Zm-4.2,5.842,2.885-3.339h-3.3Z" transform="translate(0 0)" fill="#1f1d59"/>
    <path id="Path_1028" data-name="Path 1028" d="M-204.774,306.5c-1,.808-1.937,1.592-2.9,2.347a1.234,1.234,0,0,1-2.032-.626,1.221,1.221,0,0,1,.489-1.311q1.106-.9,2.21-1.8c.159-.13.312-.267.472-.4a18.067,18.067,0,0,1-1.188-1.744c-.576-1.09-1.082-2.218-1.594-3.341-.1-.229-.165-.376-.47-.383a1.212,1.212,0,0,1-1.2-1.223,1.228,1.228,0,0,1,1.234-1.237c1.074-.017,2.148-.005,3.222-.006h.5c0-.408-.006-.789,0-1.169a1.247,1.247,0,0,1,1.251-1.307,1.245,1.245,0,0,1,1.226,1.29c.008.382,0,.764,0,1.186h2.961c.275,0,.552-.011.826.007A1.239,1.239,0,0,1-198.6,298a1.2,1.2,0,0,1-1.14,1.233c-.363.007-.452.17-.546.454a14.9,14.9,0,0,1-2.351,4.423c-.141.184-.278.371-.443.593.768.628,1.522,1.246,2.278,1.863.139.113.283.22.421.334a1.245,1.245,0,0,1,.282,1.788,1.235,1.235,0,0,1-1.832.145c-.8-.632-1.58-1.286-2.368-1.932C-204.453,306.769-204.608,306.636-204.774,306.5Zm-2.032-7.236a12.6,12.6,0,0,0,2.017,3.585,12.532,12.532,0,0,0,2.01-3.585Z" transform="translate(-125.655 -81.844)" fill="#1f1d59"/>
    <path id="Path_1029" data-name="Path 1029" d="M-316.812,259.189h-3.42c-.258,1.284-.509,2.562-.771,3.837a1.245,1.245,0,0,1-1.763.983,1.245,1.245,0,0,1-.683-1.409q.99-4.974,1.989-9.947c.148-.741.3-1.483.45-2.223a1.29,1.29,0,0,1,1.4-1.173c.73-.007,1.459-.008,2.189,0a1.279,1.279,0,0,1,1.38,1.15q1.224,6.084,2.438,12.17a1.256,1.256,0,0,1-.967,1.532,1.261,1.261,0,0,1-1.47-1.061c-.137-.645-.262-1.293-.392-1.94S-316.682,259.844-316.812,259.189Zm-1.935-7.44-.979,4.915h2.409l-.984-4.915Z" transform="translate(-31.755 -44.245)" fill="#1f1d59"/>
  </g>
</svg>
