<svg xmlns="http://www.w3.org/2000/svg" width="88" height="64" viewBox="0 0 88 64">
  <rect id="Rectangle_326" data-name="Rectangle 326" width="88" height="64" rx="10" fill="#fff"/>
  <g id="Group_571" data-name="Group 571" transform="translate(-181.21 214.674)">
    <path id="Path_948" data-name="Path 948" d="M210.3-214.606c2.791,0,5.581-.022,8.371.014.641.008,1.529-.354,1.862.386.255.567-.4,1.113-.746,1.612q-8.852,12.738-17.717,25.469c-2.621,3.767-2.626,3.774-.109,7.553q8.908,13.38,17.817,26.76c.35.528,1.107,1.06.676,1.77-.358.588-1.145.293-1.737.3-4.9.019-9.8-.022-14.7.036a2.541,2.541,0,0,1-2.421-1.3q-9.857-14.976-19.8-29.9a2.77,2.77,0,0,1-.01-3.392c5.781-9.53,11.652-19,17.78-28.316a2.028,2.028,0,0,1,1.986-.995C204.466-214.588,207.381-214.6,210.3-214.606Z" transform="translate(0)" fill="#ededed"/>
  </g>
  <g id="Group_572" data-name="Group 572" transform="translate(-187.972 236.461)">
    <path id="Path_944" data-name="Path 944" d="M391.768-204.422c0-3.162.008-6.323-.01-9.484,0-.468.09-.651.61-.649q6.73.031,13.46,0c.472,0,.6.135.592.6q-.049,1.777,0,3.556c.012.454-.138.562-.573.559-2.688-.019-5.376,0-8.064-.022-.507,0-.641.147-.611.631a17.17,17.17,0,0,1,0,1.955c-.022.414.1.535.523.531,2.154-.021,4.309,0,6.463-.02.461,0,.619.108.6.589-.036,1.086-.032,2.174,0,3.26.013.449-.13.57-.571.565-2.134-.022-4.269.005-6.4-.024-.508-.007-.64.152-.614.635a17.746,17.746,0,0,1,0,2.192c-.039.552.176.646.673.642,2.846-.022,5.692,0,8.538-.023.517,0,.678.118.66.651-.042,1.2-.024,2.41-.006,3.615,0,.339-.1.44-.439.439q-7.174-.013-14.349,0c-.484,0-.479-.254-.478-.6Q391.774-199.621,391.768-204.422Z" transform="translate(-160.389 -0.09)" fill="#1f1d59"/>
    <path id="Path_945" data-name="Path 945" d="M242.725-204.387c0-3.18.011-6.36-.011-9.54,0-.5.152-.626.636-.622,2.549.022,5.1,0,7.646.014a8.049,8.049,0,0,1,4.722,1.3,5.859,5.859,0,0,1,2.478,4.521,6.734,6.734,0,0,1-2.566,6.4,7.016,7.016,0,0,1-4.284,1.326c-.928.013-1.858.02-2.786,0-.417-.011-.547.134-.544.545.015,1.876-.01,3.753.014,5.629.006.466-.119.612-.6.6-1.382-.032-2.766-.027-4.149,0-.444.008-.572-.13-.569-.573C242.733-197.987,242.725-201.187,242.725-204.387Zm5.3-3.373c0,.69.015,1.38-.006,2.069-.011.366.131.484.486.474.709-.02,1.419.009,2.129-.014a2.274,2.274,0,0,0,2.292-2.471,2.265,2.265,0,0,0-2.262-2.554c-.728-.03-1.459.008-2.187-.016-.387-.013-.463.168-.455.5C248.035-209.1,248.024-208.43,248.024-207.76Z" transform="translate(-46.713 -0.094)" fill="#1f1d59"/>
    <path id="Path_946" data-name="Path 946" d="M319.25-204.418c0-3.18.011-6.36-.011-9.54,0-.48.145-.6.6-.593,1.4.026,2.806.031,4.208,0,.492-.012.627.127.625.621-.019,4.74,0,9.48-.023,14.22,0,.552.123.743.71.736,2.706-.031,5.413-.005,8.12-.022.425,0,.588.09.575.553-.033,1.223-.024,2.449,0,3.673.007.4-.1.552-.524.551q-6.875-.02-13.751,0c-.486,0-.537-.2-.535-.6C319.256-198.019,319.25-201.219,319.25-204.418Z" transform="translate(-105.079 -0.092)" fill="#1f1d59"/>
    <path id="Path_947" data-name="Path 947" d="M464.563-214.6c.929,0,1.857.011,2.785-.006a.752.752,0,0,1,.728.379c1.966,3.007,3.82,6.082,5.667,9.163a.618.618,0,0,1-.025.757q-3.266,4.795-6.377,9.692a.75.75,0,0,1-.723.391c-1.62-.014-3.24,0-4.86-.01-.166,0-.392.091-.487-.1s.1-.321.194-.463q2.586-3.9,5.178-7.786c.383-.575.748-1.163,1.152-1.722a.52.52,0,0,0-.007-.693q-2.781-3.978-5.558-7.961c-.282-.4-.567-.805-.844-1.212-.064-.094-.16-.219-.14-.307.039-.172.223-.121.353-.121C462.588-214.6,463.575-214.6,464.563-214.6Z" transform="translate(-213.387 -0.05)" fill="#1f1d59"/>
    <path id="Path_949" data-name="Path 949" d="M512.255-158.952c-.927,0-1.855-.014-2.782.008a.786.786,0,0,1-.771-.409q-1.379-2.172-2.8-4.319a.566.566,0,0,1-.021-.739q1.246-1.8,2.451-3.627c.2-.295.314-.389.575-.038q3.244,4.37,6.515,8.722c.068.091.173.218.151.3-.047.17-.231.1-.359.1C514.229-158.95,513.242-158.952,512.255-158.952Z" transform="translate(-247.335 -35.367)" fill="#22ad7a"/>
    <path id="Path_950" data-name="Path 950" d="M514.764-214.5l-5.807,8.862c-.41-.673-.777-1.276-1.143-1.881-.471-.777-.93-1.562-1.416-2.329a.689.689,0,0,1-.017-.857c.728-1.129,1.42-2.28,2.126-3.423.113-.183.205-.377.48-.376C510.86-214.5,512.733-214.5,514.764-214.5Z" transform="translate(-247.704 -0.13)" fill="#22ad7a"/>
  </g>
</svg>
