<svg xmlns="http://www.w3.org/2000/svg" width="58.563" height="73.166" viewBox="0 0 58.563 73.166">
  <g id="Group_641" data-name="Group 641" transform="translate(309.968 -146.262)">
    <path id="Path_1032" data-name="Path 1032" d="M-203.215,182.831q0,12.108,0,24.217a12.219,12.219,0,0,1-7.492,11.42,12.165,12.165,0,0,1-4.8.955,2.414,2.414,0,0,1-2.574-2.382,2.4,2.4,0,0,1,2.537-2.488,7.272,7.272,0,0,0,7.245-5.712,8.912,8.912,0,0,0,.2-1.982q.016-24,.007-48.006a7.341,7.341,0,0,0-7.715-7.721q-12-.006-24,0a2.453,2.453,0,0,1-2.682-2.427,2.453,2.453,0,0,1,2.67-2.44q12.109,0,24.217,0a12.193,12.193,0,0,1,12.381,12.348C-203.2,166.686-203.215,174.759-203.215,182.831Z" transform="translate(-48.197 0)" fill="#1f1d59"/>
    <path id="Path_1033" data-name="Path 1033" d="M-309.961,182.815q0-12.108,0-24.217a12.2,12.2,0,0,1,7.861-11.525,12.082,12.082,0,0,1,4.539-.806,2.406,2.406,0,0,1,2.462,2.422,2.4,2.4,0,0,1-2.436,2.449,7.292,7.292,0,0,0-7.359,5.75,9.206,9.206,0,0,0-.19,1.984q-.015,23.967-.006,47.934a7.352,7.352,0,0,0,7.757,7.753q12,0,24,0a2.448,2.448,0,0,1,2.64,2.4,2.451,2.451,0,0,1-2.642,2.47q-12.18,0-24.36,0a12.185,12.185,0,0,1-12.264-12.247C-309.981,199.055-309.961,190.935-309.961,182.815Z" transform="translate(0 -0.003)" fill="#1f1d59"/>
    <path id="Path_1034" data-name="Path 1034" d="M-224.309,202.418c0,.355.017.664,0,.97a2.463,2.463,0,0,1-2.4,2.289,2.439,2.439,0,0,1-2.432-2.174,10.788,10.788,0,0,1,.014-2.139,4.332,4.332,0,0,1,4.06-3.832c1.332-.1,1.764-.561,1.768-1.89,0-.81.01-1.619,0-2.429a1.465,1.465,0,0,0-1.527-1.607,16.754,16.754,0,0,0-1.785,0,1.471,1.471,0,0,0-1.531,1.469,2.413,2.413,0,0,1-2.647,2.376,2.419,2.419,0,0,1-2.24-2.7,6.277,6.277,0,0,1,5.875-6.007,10.988,10.988,0,0,1,4.523.344,6.269,6.269,0,0,1,4.2,5.817c.024,1.142.027,2.286,0,3.428a6.279,6.279,0,0,1-5.21,5.955C-223.844,202.321-224.028,202.362-224.309,202.418Z" transform="translate(-54.947 -28.862)" fill="#1f1d59"/>
    <path id="Path_1035" data-name="Path 1035" d="M-238.619,304.7q-4.925,0-9.849,0a2.411,2.411,0,0,1-2.555-2.4,2.446,2.446,0,0,1,2.563-2.479q9.849,0,19.7,0a2.474,2.474,0,0,1,2.6,2.452,2.434,2.434,0,0,1-2.608,2.424Z" transform="translate(-42.101 -109.674)" fill="#1f1d59"/>
    <path id="Path_1036" data-name="Path 1036" d="M-232.485,334.008q3.714,0,7.429,0a2.445,2.445,0,0,1,2.563,2.412A2.445,2.445,0,0,1-225,338.9q-7.5.021-15,0a2.443,2.443,0,0,1-2.491-2.489,2.451,2.451,0,0,1,2.575-2.4Z" transform="translate(-48.196 -134.094)" fill="#1f1d59"/>
    <path id="Path_1037" data-name="Path 1037" d="M-217.083,261.691a2.4,2.4,0,0,1,2.465,2.416,2.427,2.427,0,0,1-2.432,2.46,2.461,2.461,0,0,1-2.442-2.395A2.425,2.425,0,0,1-217.083,261.691Z" transform="translate(-64.621 -82.443)" fill="#1f1d59"/>
  </g>
</svg>
