<svg xmlns="http://www.w3.org/2000/svg" width="89" height="857.792" viewBox="0 0 89 857.792">
  <path id="Union_1" data-name="Union 1" d="M10,856.792A9.941,9.941,0,0,1,4.288,855H83.714A9.939,9.939,0,0,1,78,856.792ZM9,757a9,9,0,0,1-9-9V575c0-.042,0-.085,0-.127V182.127c0-.042,0-.085,0-.127V9A9,9,0,0,1,9,0H79a9,9,0,0,1,9,9V297.77a9.3,9.3,0,0,1-9.285,9.286H20a10.011,10.011,0,0,0-10,10v58a10.011,10.011,0,0,0,10,10h58.74A9.27,9.27,0,0,1,88,394.315V748a9,9,0,0,1-9,9Z" transform="translate(0.5 0.5)" fill="#1f1d59" stroke="rgba(0,0,0,0)" stroke-miterlimit="10" stroke-width="1"/>
</svg>
