<svg width="34" height="28" viewBox="0 0 34 28" fill="none" xmlns="http://www.w3.org/2000/svg">
<path d="M22.5547 26.6035V23.8255C22.5547 22.352 21.9693 20.9388 20.9274 19.8968C19.8854 18.8549 18.4722 18.2695 16.9987 18.2695H7.27768C5.80414 18.2695 4.39095 18.8549 3.34899 19.8968C2.30704 20.9388 1.72168 22.352 1.72168 23.8255V26.6035H22.5547ZM23.9437 12.7145L26.7217 15.4925L32.2777 9.93652L23.9437 12.7145ZM17.6937 7.15952C17.6937 8.25843 17.3678 9.33267 16.7573 10.2464C16.1467 11.1601 15.2789 11.8722 14.2636 12.2927C13.2484 12.7132 12.1312 12.8231 11.0534 12.6087C9.9756 12.3942 8.98562 11.865 8.20864 11.0878C7.43166 10.3107 6.90258 9.32065 6.68831 8.24282C6.47405 7.165 6.58422 6.04784 7.00489 5.03263C7.42557 4.01742 8.13785 3.14977 9.05166 2.53938C9.96547 1.929 11.0398 1.60332 12.1387 1.60352C13.612 1.60378 15.025 2.18926 16.0667 3.23118C17.1085 4.27311 17.6937 5.68615 17.6937 7.15952Z" stroke="#1F1D59" stroke-width="2" stroke-linecap="round" stroke-linejoin="round"/>
</svg>
