<svg id="Group_161" data-name="Group 161" xmlns="http://www.w3.org/2000/svg" width="11.587" height="13.369" viewBox="0 0 11.587 13.369">
  <g id="Group_159" data-name="Group 159" transform="translate(0 6.542)">
    <path id="Path_48" data-name="Path 48" d="M190.351,470.169H189.4v-4.12a1.911,1.911,0,0,0-1.98-1.829h-5.727a1.911,1.911,0,0,0-1.98,1.829v4.12h-.949v-4.12a2.827,2.827,0,0,1,2.93-2.706h5.727a2.828,2.828,0,0,1,2.93,2.706Z" transform="translate(-178.764 -463.342)" fill="#1f1d59"/>
  </g>
  <g id="Group_160" data-name="Group 160" transform="translate(1.777)">
    <path id="Path_49" data-name="Path 49" d="M185.588,459.571a3.721,3.721,0,1,1,4.016-3.71A3.877,3.877,0,0,1,185.588,459.571Zm0-6.542a2.842,2.842,0,1,0,3.066,2.832A2.96,2.96,0,0,0,185.588,453.029Z" transform="translate(-181.572 -452.152)" fill="#1f1d59"/>
  </g>
</svg>
