<svg xmlns="http://www.w3.org/2000/svg" width="13.002" height="22.127" viewBox="0 0 13.002 22.127">
  <path id="Path_1038" data-name="Path 1038" d="M481.347,667.4a3.59,3.59,0,0,1-1.462-1.232,1.156,1.156,0,0,1,.018-1.44,3.317,3.317,0,0,1,.249-.269q3.961-3.962,7.924-7.922a1.819,1.819,0,0,1,.219-.161c-.1-.1-.155-.166-.215-.225l-7.983-7.985a1.14,1.14,0,0,1-.264-1.535A6.059,6.059,0,0,1,481,645.466a1.087,1.087,0,0,1,1.36.11c.061.05.12.1.176.159q4.825,4.824,9.648,9.648a1.224,1.224,0,0,1,.284,1.563,1.792,1.792,0,0,1-.285.35q-4.822,4.826-9.652,9.644a4.033,4.033,0,0,1-.709.461Z" transform="translate(-479.636 -645.274)" fill="#1f1d59"/>
</svg>
