<svg id="Group_775" data-name="Group 775" xmlns="http://www.w3.org/2000/svg" width="12.754" height="15.595" viewBox="0 0 12.754 15.595">
  <path id="Path_16" data-name="Path 16" d="M466.741,766.217q0-1.968,0-3.935a.71.71,0,1,1,1.417-.108c0,.061,0,.122,0,.183q0,3.827,0,7.654a1.355,1.355,0,0,0,1.417,1.42h5.66A1.356,1.356,0,0,0,476.661,770q0-3.86,0-7.721a.716.716,0,0,1,.534-.745.7.7,0,0,1,.87.578,1.439,1.439,0,0,1,.015.231q0,3.844,0,7.687a2.772,2.772,0,0,1-2.325,2.779,2.839,2.839,0,0,1-.5.039q-2.847,0-5.694,0a2.78,2.78,0,0,1-2.825-2.832Q466.74,768.118,466.741,766.217Z" transform="translate(-466.035 -757.256)" fill="#1f1d59"/>
  <path id="Path_17" data-name="Path 17" d="M454.373,667.662c0-.455,0-.885,0-1.316a1.162,1.162,0,0,1,.028-.3.692.692,0,0,1,.694-.512q2.108-.006,4.215,0a.7.7,0,0,1,.723.74c0,.393,0,.786,0,1.179v.2h.207q1.278,0,2.556,0a.742.742,0,0,1,.585.225.674.674,0,0,1,.142.753.686.686,0,0,1-.611.441,1.151,1.151,0,0,1-.116,0H451.611a.712.712,0,1,1-.018-1.419c.852,0,1.7,0,2.556,0Zm1.419-.011h2.82v-.682h-2.82Z" transform="translate(-450.828 -665.535)" fill="#1f1d59"/>
  <path id="Path_18" data-name="Path 18" d="M546.657,796.587c0-.83,0-1.659,0-2.489a.7.7,0,0,1,1.344-.291.882.882,0,0,1,.07.337q.007,2.439,0,4.879a.71.71,0,1,1-1.418-.013Q546.656,797.8,546.657,796.587Z" transform="translate(-542.406 -787.724)" fill="#1f1d59"/>
  <path id="Path_19" data-name="Path 19" d="M611.9,796.629c0,.824,0,1.648,0,2.473a.7.7,0,0,1-.518.689.679.679,0,0,1-.786-.311.9.9,0,0,1-.109-.409q-.011-2.44,0-4.879a.71.71,0,1,1,1.418.014Q611.9,795.418,611.9,796.629Z" transform="translate(-603.395 -787.77)" fill="#1f1d59"/>
</svg>
