<svg id="Group_564" data-name="Group 564" xmlns="http://www.w3.org/2000/svg" width="54.567" height="54.555" viewBox="0 0 54.567 54.555">
  <path id="Path_928" data-name="Path 928" d="M-422.3,335.446c.829-1.3,1.608-2.569,2.433-3.806.785-1.176,1.666-1.213,2.383-.008,1.393,2.341,2.775,4.7,4,7.126a5.6,5.6,0,0,1-.946,6.613,1.618,1.618,0,0,0-.057,1.306c3.232,9.563,1.9,18.42-4.28,26.406a27.033,27.033,0,0,1-28.715,9.31,27.308,27.308,0,0,1-19.679-23.032A27.294,27.294,0,0,1-438.17,328.94a26.683,26.683,0,0,1,15.028,5.859C-422.87,335.013-422.593,335.221-422.3,335.446Zm-42.746,18.783c-.033,14.818,9.89,25.7,22.779,26.816a25.062,25.062,0,0,0,25.826-33.039c-.272-.792-.552-1.227-1.489-.928a3.731,3.731,0,0,1-1.475.018,5.78,5.78,0,0,1-4.382-8.523,1.137,1.137,0,0,0-.379-1.674c-8.146-6.3-17.054-7.648-26.381-3.342C-459.984,337.912-464.578,345.746-465.048,354.229Zm46.609-20.2-.471.035c-1.025,2.047-2.129,4.059-3.048,6.153a3.232,3.232,0,0,0,1.185,3.946,3.511,3.511,0,0,0,4.163.036,3.209,3.209,0,0,0,1.245-3.925C-416.292,338.146-417.406,336.1-418.439,334.026Z" transform="translate(467.35 -328.872)" fill="#1f1d59"/>
  <path id="Path_929" data-name="Path 929" d="M-387.57,502.464a15.909,15.909,0,0,0-10.709,4.191c-.236.214-.472.568-.728.587a2.033,2.033,0,0,1-1.4-.258c-.238-.225-.186-.905-.057-1.32.1-.329.5-.577.792-.836a18.2,18.2,0,0,1,24.275,0c1.1.98,1.308,1.576.781,2.205-.543.648-1.186.5-2.331-.517A15.915,15.915,0,0,0-387.57,502.464Z" transform="translate(414.797 -463.699)" fill="#1f1d59"/>
  <path id="Path_930" data-name="Path 930" d="M-408.339,421.143a5.706,5.706,0,0,1-5.735-5.307c-.046-.77.208-1.393,1.024-1.475s1.171.436,1.271,1.234a3.414,3.414,0,0,0,3.4,3.273A3.412,3.412,0,0,0-405,415.585c.1-.8.469-1.312,1.279-1.224s1.063.715,1.014,1.483A5.7,5.7,0,0,1-408.339,421.143Z" transform="translate(425.425 -396.145)" fill="#1f1d59"/>
  <path id="Path_931" data-name="Path 931" d="M-312.407,421.145a5.7,5.7,0,0,1-5.65-5.167c-.082-.8.1-1.495.977-1.609s1.214.46,1.31,1.3a3.4,3.4,0,0,0,3.355,3.2A3.4,3.4,0,0,0-309,415.622c.1-.794.439-1.334,1.248-1.261.879.08,1.112.749,1.041,1.557A5.694,5.694,0,0,1-312.407,421.145Z" transform="translate(349.869 -396.148)" fill="#1f1d59"/>
</svg>
