<svg id="Group_562" data-name="Group 562" xmlns="http://www.w3.org/2000/svg" width="20.91" height="25.568" viewBox="0 0 20.91 25.568">
  <path id="Path_16" data-name="Path 16" d="M466.741,769.225q0-3.226,0-6.451a1.165,1.165,0,1,1,2.323-.177c.007.1,0,.2,0,.3q0,6.274,0,12.549a2.221,2.221,0,0,0,2.323,2.328h9.28A2.223,2.223,0,0,0,483,775.427q0-6.329,0-12.658a1.173,1.173,0,0,1,.876-1.221,1.15,1.15,0,0,1,1.426.947,2.356,2.356,0,0,1,.024.379q0,6.3,0,12.6a4.544,4.544,0,0,1-3.811,4.557,4.66,4.66,0,0,1-.812.064q-4.667.007-9.335,0a4.558,4.558,0,0,1-4.632-4.642Q466.739,772.342,466.741,769.225Z" transform="translate(-465.584 -754.534)" fill="#fff"/>
  <path id="Path_17" data-name="Path 17" d="M456.64,669.023c0-.746,0-1.452,0-2.157a1.908,1.908,0,0,1,.046-.484,1.135,1.135,0,0,1,1.138-.84q3.455-.01,6.911,0a1.142,1.142,0,0,1,1.185,1.214c.006.644,0,1.288,0,1.932v.335h.339q2.095,0,4.19,0a1.218,1.218,0,0,1,.959.368,1.105,1.105,0,0,1,.232,1.235,1.124,1.124,0,0,1-1,.723,1.9,1.9,0,0,1-.19,0H452.112a1.168,1.168,0,1,1-.029-2.326c1.4,0,2.793,0,4.19,0Zm2.327-.018h4.624v-1.119h-4.624Z" transform="translate(-450.828 -665.535)" fill="#fff"/>
  <path id="Path_18" data-name="Path 18" d="M546.658,798.628c0-1.36,0-2.721,0-4.081a1.155,1.155,0,0,1,2.2-.478,1.446,1.446,0,0,1,.115.552q.011,4,0,8a1.165,1.165,0,1,1-2.325-.021Q546.655,800.614,546.658,798.628Z" transform="translate(-539.688 -784.098)" fill="#fff"/>
  <path id="Path_19" data-name="Path 19" d="M612.8,798.667c0,1.351,0,2.7,0,4.054a1.142,1.142,0,0,1-.85,1.129,1.113,1.113,0,0,1-1.289-.51,1.472,1.472,0,0,1-.179-.67q-.018-4-.006-8a1.165,1.165,0,1,1,2.325.023Q612.807,796.681,612.8,798.667Z" transform="translate(-598.867 -784.142)" fill="#fff"/>
</svg>
