<svg xmlns="http://www.w3.org/2000/svg" width="62.846" height="51.417" viewBox="0 0 62.846 51.417">
  <g id="Group_653" data-name="Group 653" transform="translate(484.023 -160.671)">
    <path id="Path_1044" data-name="Path 1044" d="M-479.738,172.1c0-.435,0-.835,0-1.235a5.717,5.717,0,0,1,5.883-5.877q11.076,0,22.151.01a.732.732,0,0,0,.818-.523,5.764,5.764,0,0,1,5.794-3.8c6,.017,11.993,0,17.99.005a5.7,5.7,0,0,1,5.924,5.916q0,9.106,0,18.213a1.428,1.428,0,0,1-.886,1.465,1.384,1.384,0,0,1-1.532-.3,1.552,1.552,0,0,1-.439-1.222q.008-6.243,0-12.485c0-1.894,0-3.789,0-5.683a2.811,2.811,0,0,0-3.038-3.043q-9.106-.006-18.213,0a2.936,2.936,0,0,0-2.93,1.932q-1.2,2.795-2.416,5.58a6.036,6.036,0,0,1-5.959,3.9q-11.3,0-22.6.01a2.766,2.766,0,0,0-1.162.232,1.534,1.534,0,0,0-.817,1.524c.006,2.864,0,5.728,0,8.592q0,10.449,0,20.9a2.73,2.73,0,0,0,1.67,2.76,3.847,3.847,0,0,0,1.478.256q9.375.024,18.75.01,5.325,0,10.65,0a2.9,2.9,0,0,1,.665.062,1.419,1.419,0,0,1,1.062,1.51,1.41,1.41,0,0,1-1.335,1.276c-.506.02-1.014.006-1.521.006q-14.208,0-28.416,0a5.7,5.7,0,0,1-5.809-4.955,5.786,5.786,0,0,1-.048-.892q0-14.834,0-29.669a4.487,4.487,0,0,1,3.957-4.421C-479.976,172.134-479.889,172.12-479.738,172.1Zm27.423-4.253H-473.8c-.164,0-.328,0-.492.012a2.7,2.7,0,0,0-2.455,2.025,15.794,15.794,0,0,0-.171,2.176c.182.017.269.032.355.032q10.088,0,20.176,0a2.928,2.928,0,0,0,2.645-1.325A31.332,31.332,0,0,0-452.315,167.846Z" transform="translate(0 0)" fill="#1f1d59"/>
    <path id="Path_1045" data-name="Path 1045" d="M-278.239,316.871a14.289,14.289,0,0,1-14.28-14.3,14.308,14.308,0,0,1,14.281-14.262,14.307,14.307,0,0,1,14.28,14.307A14.289,14.289,0,0,1-278.239,316.871Zm11.422-14.276a11.4,11.4,0,0,0-11.355-11.425,11.408,11.408,0,0,0-11.493,11.382,11.4,11.4,0,0,0,11.494,11.465A11.392,11.392,0,0,0-266.817,302.595Z" transform="translate(-157.221 -104.789)" fill="#1f1d59"/>
    <path id="Path_1046" data-name="Path 1046" d="M-246.88,336.8c-1.3,0-2.53,0-3.766,0a5.011,5.011,0,0,1-.714-.031,1.384,1.384,0,0,1-1.22-1.507,1.371,1.371,0,0,1,1.381-1.309c1.327-.019,2.654-.008,3.981-.01.089,0,.177-.011.335-.021v-.525c0-1.253-.012-2.505.008-3.758a1.405,1.405,0,0,1,1.163-1.392,1.4,1.4,0,0,1,1.578.887,2.321,2.321,0,0,1,.106.745c.011,1.178.005,2.356.006,3.534,0,.16,0,.321,0,.53h2.543c.567,0,1.133-.008,1.7,0a1.394,1.394,0,0,1,1.457,1.376,1.385,1.385,0,0,1-1.416,1.466c-1.252.033-2.5.011-3.757.013h-.527c0,.468,0,.883,0,1.3,0,.925,0,1.849,0,2.774a1.453,1.453,0,0,1-1.443,1.631,1.447,1.447,0,0,1-1.416-1.613c0-1.208,0-2.416,0-3.623Z" transform="translate(-190.008 -137.555)" fill="#1f1d59"/>
  </g>
</svg>
