<svg xmlns="http://www.w3.org/2000/svg" width="22.549" height="22.189" viewBox="0 0 22.549 22.189">
  <g id="Group_563" data-name="Group 563" transform="translate(0)">
    <path id="Path_918" data-name="Path 918" d="M-514.04,22.724c0-2.318,0-4.636,0-6.954a3.256,3.256,0,0,1,3.32-3.408c2.068-.034,4.137-.013,6.205-.006a1.116,1.116,0,0,1,1.189.844,1.05,1.05,0,0,1-.573,1.212,2.02,2.02,0,0,1-.768.135c-1.907.011-3.814.005-5.722.006-1.109,0-1.457.345-1.457,1.437q0,6.8,0,13.6c0,1,.387,1.382,1.383,1.382h11.443c1.027,0,1.394-.372,1.4-1.413,0-1-.007-2,0-2.993a1.12,1.12,0,0,1,.881-1.2,1.047,1.047,0,0,1,1.284.945,36.531,36.531,0,0,1-.042,4.132,3.186,3.186,0,0,1-3.283,2.726c-3.213.009-6.426,0-9.639,0-.777,0-1.555.009-2.333,0a3.277,3.277,0,0,1-3.288-3.312C-514.048,27.477-514.04,25.1-514.04,22.724Z" transform="translate(514.043 -10.984)" fill="#1f1d59"/>
    <path id="Path_919" data-name="Path 919" d="M-442.548,10.32a6.041,6.041,0,0,1,.874-3.754,7.145,7.145,0,0,1,.877-1.095q3.626-3.653,7.277-7.28a4.031,4.031,0,0,1,4.328-1.057A3.963,3.963,0,0,1-426.367.472a4.07,4.07,0,0,1-1.255,3.679l-4.043,4.044c-1.037,1.037-2.081,2.067-3.108,3.113a5.845,5.845,0,0,1-4.282,1.84c-.748,0-1.5.01-2.243,0a1.115,1.115,0,0,1-1.249-1.252C-442.555,11.441-442.548,10.986-442.548,10.32Zm8.065-8.068c-1.566,1.567-3.125,3.163-4.725,4.715a4.465,4.465,0,0,0-1.1,3.942,4.486,4.486,0,0,0,4.122-1.275c1.093-1.186,2.27-2.295,3.415-3.432.383-.38.782-.744,1.151-1.094Zm4.5,1.169c.335-.35.724-.708,1.054-1.114a1.96,1.96,0,0,0-.179-2.635,1.943,1.943,0,0,0-2.6-.136,12.9,12.9,0,0,0-1.062,1.12Z" transform="translate(448.857 3.101)" fill="#1f1d59"/>
  </g>
</svg>
