<svg id="Group_477" data-name="Group 477" xmlns="http://www.w3.org/2000/svg" width="43.52" height="63.388" viewBox="0 0 43.52 63.388">
  <path id="Path_911" data-name="Path 911" d="M-227.671,242.278c0-1.018-.079-2.224-.162-3.192a4.528,4.528,0,0,0-4.611-4.263,4.518,4.518,0,0,0-4.389,4.483c-.036.922-.006,1.846-.006,2.739l-.014,2.828c0,3.781.018,7.375-.025,10.969a2.493,2.493,0,0,1-.553,1.174c-1.338,1.993-2.724,3.954-4.043,5.959a7.063,7.063,0,0,0-.865,6.868c1.741,4.083,3.688,8.08,5.611,12.083a1.723,1.723,0,0,0,1.236.786,1.369,1.369,0,0,0,1.108-.713,2.465,2.465,0,0,0-.167-1.612c-1.62-3.557-3.288-7.093-4.956-10.628a5.019,5.019,0,0,1,.032-4.86c.7-1.224,1.552-2.358,2.337-3.532l.306.106a6.122,6.122,0,0,0,.047,1.952c.188.527.842,1.319,1.173,1.266.534-.086,1.051-.714,1.416-1.226.191-.268.047-.777.047-1.177q0-10.941,0-21.882a8.472,8.472,0,0,1,.038-1.332,1.662,1.662,0,0,1,1.747-1.511,1.643,1.643,0,0,1,1.781,1.463,8.416,8.416,0,0,1,.068,1.462q.006,8.873,0,17.746c0,1.013-.012,2.143,1.382,2.116s1.336-1.168,1.337-2.171c0-1.69-.02-3.38.01-5.07.023-1.291.7-2.059,1.76-2.087,1.1-.029,1.832.781,1.849,2.13.023,1.823.008,3.647.009,5.47,0,.947.281,1.744,1.379,1.738,1.119-.006,1.328-.835,1.325-1.769-.007-1.779-.02-3.558.007-5.337.022-1.438.768-2.279,1.907-2.232,1.074.044,1.736.874,1.748,2.243.016,1.868,0,3.736.012,5.6.007.873.409,1.486,1.34,1.492s1.326-.6,1.332-1.482c.008-1.067-.007-2.135.01-3.2.023-1.474.689-2.291,1.838-2.291s1.835.807,1.843,2.281c.015,2.624.109,5.253-.022,7.871a80.633,80.633,0,0,1-.863,9.663,63.99,63.99,0,0,1-2.233,7.53c-.263.867-.149,1.649.8,1.967a1.281,1.281,0,0,0,1.722-1.03c.945-3.238,2.342-6.44,2.66-9.744.552-5.732.494-11.529.547-17.3a4.139,4.139,0,0,0-3.663-3.849,18.453,18.453,0,0,0-2.95.138c-2.3-2.968-3.953-3.3-7.5-1.406a4.832,4.832,0,0,0-4.787-.915v-3.712Z" transform="translate(252.327 -219.393)" fill="#1f1d59"/>
  <path id="Path_912" data-name="Path 912" d="M-188.921,216.262" transform="translate(212.772 -205.789)" fill="#1f1d59"/>
  <path id="Path_913" data-name="Path 913" d="M-267.3,213.524a18.373,18.373,0,0,1-8.038-15.185,18.4,18.4,0,0,1,18.379-18.379,18.4,18.4,0,0,1,18.379,18.379,18.323,18.323,0,0,1-.655,4.852,8.356,8.356,0,0,1,2.786.935,21.243,21.243,0,0,0,.805-5.787,21.339,21.339,0,0,0-21.315-21.315,21.339,21.339,0,0,0-21.315,21.315A21.306,21.306,0,0,0-269,215.92Z" transform="translate(278.279 -177.024)" fill="#1f1d59"/>
</svg>
