<svg id="Path_19" data-name="Path 19" xmlns="http://www.w3.org/2000/svg" width="14.348" height="11.762" viewBox="0 0 14.348 11.762">
  <path id="Path_47" data-name="Path 47" d="M273.983,371.42a.852.852,0,0,1-.546-.216q-.611-.5-1.222-1c-1.144-.931-2.327-1.894-3.462-2.877a5.218,5.218,0,0,1-1.81-2.83,3.777,3.777,0,0,1,1.52-4.1,3.978,3.978,0,0,1,5.281.589c.041.047.08.1.119.148l.131.174c.11-.14.225-.282.352-.414a4.034,4.034,0,0,1,5.367-.383,3.5,3.5,0,0,1,1.175,1.674,4.15,4.15,0,0,1-1,4.429,21.053,21.053,0,0,1-2.025,1.933c-.793.666-1.622,1.319-2.423,1.95l-.835.66A1.024,1.024,0,0,1,273.983,371.42Zm-3.2-11.095a3.189,3.189,0,0,0-1.874.6,3.145,3.145,0,0,0-1.263,3.422,4.576,4.576,0,0,0,1.593,2.491c1.137.984,2.315,1.943,3.455,2.87q.613.5,1.224,1a.314.314,0,0,0,.074.049,1.284,1.284,0,0,0,.147-.1l.838-.663c.8-.628,1.621-1.278,2.408-1.938a20.425,20.425,0,0,0,1.969-1.879,3.534,3.534,0,0,0,.85-3.783,2.851,2.851,0,0,0-.958-1.372,3.271,3.271,0,0,0-4.353.313,6.205,6.205,0,0,0-.4.487c-.069.089-.14.179-.213.27l-.3.371-.441-.592c-.087-.118-.172-.234-.26-.348-.031-.041-.063-.081-.1-.119A3.136,3.136,0,0,0,270.782,360.325Z" transform="translate(-266.807 -359.658)" fill="#1f1d59"/>
</svg>
