<svg id="Group_726" data-name="Group 726" xmlns="http://www.w3.org/2000/svg" width="18.128" height="18.128" viewBox="0 0 18.128 18.128">
  <path id="Path_1024" data-name="Path 1024" d="M-435.5,91.334a9.08,9.08,0,0,1,9.067-9.061,9.08,9.08,0,0,1,9.061,9.067,9.081,9.081,0,0,1-9.067,9.061A9.08,9.08,0,0,1-435.5,91.334Zm16.478-.005a7.426,7.426,0,0,0-7.413-7.4,7.43,7.43,0,0,0-7.414,7.42,7.43,7.43,0,0,0,7.431,7.4A7.428,7.428,0,0,0-419.025,91.329Z" transform="translate(435.503 -82.273)" fill="#1f1d59"/>
  <path id="Path_1025" data-name="Path 1025" d="M-317.467,186.714c0,.926.01,1.852,0,2.777a.805.805,0,0,1-1.09.738.785.785,0,0,1-.54-.7,1.535,1.535,0,0,1-.006-.159q0-2.663,0-5.325a.831.831,0,0,1,.534-.852.812.812,0,0,1,1.1.743C-317.457,184.862-317.467,185.788-317.467,186.714Z" transform="translate(327.35 -175.998)" fill="#1f1d59"/>
  <path id="Path_1026" data-name="Path 1026" d="M-318.248,136.662a.813.813,0,0,1,.814.824.817.817,0,0,1-.825.815.816.816,0,0,1-.814-.826A.814.814,0,0,1-318.248,136.662Z" transform="translate(327.318 -132.81)" fill="#1f1d59"/>
</svg>
