<svg xmlns="http://www.w3.org/2000/svg" width="7.987" height="13.592" viewBox="0 0 7.987 13.592">
  <path id="Path_48" data-name="Path 48" d="M480.687,658.866a2.2,2.2,0,0,1-.9-.757.71.71,0,0,1,.011-.885,2.029,2.029,0,0,1,.153-.165q2.433-2.434,4.867-4.866a1.121,1.121,0,0,1,.135-.1c-.06-.064-.1-.1-.132-.138l-4.9-4.905a.7.7,0,0,1-.162-.943,3.723,3.723,0,0,1,.717-.716.668.668,0,0,1,.835.068c.037.031.074.064.108.1l5.927,5.927a.752.752,0,0,1,.174.96,1.1,1.1,0,0,1-.175.215q-2.962,2.965-5.929,5.924a2.478,2.478,0,0,1-.435.283Z" transform="translate(487.623 658.866) rotate(180)" fill="#fff"/>
</svg>
