<svg xmlns="http://www.w3.org/2000/svg" width="35.099" height="22.524" viewBox="0 0 35.099 22.524">
  <g id="Group_470" data-name="Group 470" transform="translate(390.872 -199.777)">
    <path id="Path_905" data-name="Path 905" d="M-341.817,205.31l-9.252,5.988a5.084,5.084,0,0,1,.96.546c2.112,2,4.206,4.022,6.3,6.037.148.142.377.264.425.435a5.541,5.541,0,0,1,.1,1.014c-.364-.007-.862.137-1.071-.045-1.15-1.006-2.229-2.09-3.331-3.149l-4.257-4.089a26.133,26.133,0,0,1-2.89,1.043,7.554,7.554,0,0,1-6-1.137c-3.685-2.373-7.354-4.771-11.044-7.137a1.279,1.279,0,0,1-.659-1.219,3.563,3.563,0,0,1,3.792-3.816q12.256-.009,24.512,0a3.525,3.525,0,0,1,3.821,3.769q.01,7.466,0,14.932a3.528,3.528,0,0,1-3.8,3.794q-10.929.008-21.857,0c-.206,0-.47.069-.607-.03-.253-.183-.562-.45-.6-.713-.024-.189.325-.5.574-.628a1.874,1.874,0,0,1,.785-.037q10.708,0,21.415,0c1.92,0,2.665-.746,2.665-2.665q0-5.929,0-11.858Zm-14.622-4.12q-6.108,0-12.215,0a2.183,2.183,0,0,0-2.332,1.5.985.985,0,0,0,.419,1.275c3.6,2.291,7.157,4.646,10.77,6.915a5.923,5.923,0,0,0,6.615.045c3.676-2.278,7.284-4.665,10.9-7.046a1.212,1.212,0,0,0,.395-.994,2.1,2.1,0,0,0-2.333-1.7Q-350.332,201.182-356.44,201.189Z" transform="translate(-15.379 0)" fill="#1f1d59"/>
    <path id="Path_906" data-name="Path 906" d="M-352.328,295.85c1.884,0,3.768,0,5.652,0,.464,0,.929.048.95.615.024.624-.456.69-.956.689q-5.652-.008-11.3,0c-.462,0-.927-.043-.949-.615-.025-.63.458-.69.955-.688C-356.1,295.853-354.212,295.85-352.328,295.85Z" transform="translate(-26.023 -79.11)" fill="#1f1d59"/>
    <path id="Path_907" data-name="Path 907" d="M-370.062,273.132c-1.321,0-2.643-.005-3.964,0-.474,0-.916-.076-.917-.651s.441-.653.914-.652q4,.008,8.009,0c.471,0,.914.068.915.65s-.44.655-.913.652C-367.366,273.128-368.714,273.132-370.062,273.132Z" transform="translate(-13.352 -59.334)" fill="#1f1d59"/>
    <path id="Path_908" data-name="Path 908" d="M-387.691,249.121a20.874,20.874,0,0,1-2.339-.029,1.122,1.122,0,0,1-.826-.611c-.1-.487.324-.66.786-.659q2.423.006,4.846,0c.462,0,.826.148.81.671s-.405.632-.854.628C-386.076,249.117-386.883,249.121-387.691,249.121Z" transform="translate(0 -39.563)" fill="#1f1d59"/>
  </g>
</svg>
