<svg xmlns="http://www.w3.org/2000/svg" width="55.336" height="55.696" viewBox="0 0 55.336 55.696">
  <g id="Group_561" data-name="Group 561" transform="translate(0)">
    <path id="Path_925" data-name="Path 925" d="M-636.5,292.212c.638.113,1.1.425,1.077,1.127a.989.989,0,0,1-1.118,1.048.978.978,0,0,1-1.025-1.032C-637.587,292.649-637.14,292.333-636.5,292.212Z" transform="translate(645.016 -282.172)" fill="#1f1d59"/>
    <path id="Path_926" data-name="Path 926" d="M-619.674,261.825c-.375-.125-.573-.181-.567-.685.032-2.494-.778-3.622-3.2-4.526-.383-.143-.449-.268-.426-.673a4.131,4.131,0,0,0-4.453-4.66c-.562.017-.771-.082-.945-.661a4.026,4.026,0,0,0-3.511-2.979,4.089,4.089,0,0,0-3.78,1.484,1.483,1.483,0,0,1-1.783.488,24.68,24.68,0,0,0-8.708-.884,2.319,2.319,0,0,1-1.76-.576,9.765,9.765,0,0,0-4.059-1.984c-2.643-.583-5.243,1.094-4.887,3.537.279,1.917-.626,2.5-1.9,3.159a3.163,3.163,0,0,0-.358.244c-.582.412-.834.943-.4,1.575a1.068,1.068,0,0,0,1.618.24c.707-.436,1.425-.855,2.143-1.275.28-.164.534-.346.839.034,1.793,2.235,3.457,4.584,3.249,7.595a50.975,50.975,0,0,0-.292,6.823c.024.375-.017.6-.5.593a3.585,3.585,0,0,0-2.634,1.315q-5.787,5.815-11.6,11.6a2.387,2.387,0,0,1-.93.772c-.077-.214-.165-.408-.219-.611a24.175,24.175,0,0,1,2.8-19.509c.169-.277.354-.547.5-.837a.972.972,0,0,0-.364-1.33,1.012,1.012,0,0,0-1.383.144,3.917,3.917,0,0,0-.5.708,26.181,26.181,0,0,0-3.9,17.748,26.525,26.525,0,0,0,31.817,22.439A26.438,26.438,0,0,0-619.039,271.8a2.819,2.819,0,0,1,1.063-2.668C-615.417,266.576-616.267,262.961-619.674,261.825ZM-639.3,251.59l-3.8,3.828a26.955,26.955,0,0,0-2.912-4.546A24.963,24.963,0,0,1-639.3,251.59Zm-18.4,23.221c1.114-1.087,2.2-2.2,3.311-3.3.919-.905,1.354-.909,2.276.01q5.079,5.061,10.144,10.137l3.15,3.149a1.4,1.4,0,0,1,.547,1.019,1.209,1.209,0,0,1-.425.957c-1.178,1.177-2.362,2.349-3.521,3.545-.347.358-.562.4-.949.013q-7.276-7.319-14.6-14.595C-658.189,275.33-658.03,275.13-657.7,274.81Zm6.483,24a23.951,23.951,0,0,1-6.482-2.663,24.5,24.5,0,0,1-9.649-10.6.93.93,0,0,1,.184-1.295c2.335-2.274,4.632-4.588,6.921-6.909.382-.387.593-.434,1.009-.015q7.236,7.285,14.519,14.524c.359.358.417.566.029.947-1.939,1.9-3.851,3.832-5.771,5.753C-650.669,298.764-650.869,298.98-651.219,298.813Zm3.233.5c.082-.387.426-.562.667-.8,3.3-3.312,6.587-6.63,9.917-9.909a3.529,3.529,0,0,0,1.169-3.709.566.566,0,0,1,.333-.771,24.79,24.79,0,0,1,2.265-1.278,21.483,21.483,0,0,0,7.241-5.24c1.63-1.777,3.388-3.435,5.155-5.212C-619.137,287.4-632.4,301.35-647.986,299.308Zm29.272-33.081a2.2,2.2,0,0,1-.721,1.3q-5.265,5.257-10.528,10.517a11.183,11.183,0,0,1-2.873,1.926,31.144,31.144,0,0,0-4.452,2.465c-.455.337-.662.176-.97-.134q-5.945-5.96-11.908-11.9a1.464,1.464,0,0,1-.482-1.145c.02-.868.006-1.737.006-2.605a15.008,15.008,0,0,1,.153-4,9.827,9.827,0,0,0-.961-6.215,19.54,19.54,0,0,0-3.505-5.063,1.824,1.824,0,0,1-.5-2.342c.539-.9,1.415-.88,2.31-.66a9,9,0,0,1,4.058,2.406,19.2,19.2,0,0,1,3.9,5.441,6.513,6.513,0,0,0,.581,1.037,1.65,1.65,0,0,0,2.8.194q3.383-3.375,6.761-6.757c1.056-1.052,2.158-1.19,3.074-.408.866.739.929,1.826.117,3a1.062,1.062,0,0,0,.046,1.551,1.058,1.058,0,0,0,1.626-.124,10,10,0,0,1,.865-.821,1.994,1.994,0,0,1,2.746.195,2.034,2.034,0,0,1,.1,2.678c-.292.366-.664.668-.961,1.03a1.009,1.009,0,0,0,.051,1.464,1,1,0,0,0,1.379.114c.213-.136.4-.321.62-.435a1.916,1.916,0,0,1,2.469.417,1.937,1.937,0,0,1,.2,2.5,4.6,4.6,0,0,1-.8.878c-.512.484-.723,1.042-.254,1.624.513.636,1.116.521,1.705.034a1.948,1.948,0,0,1,2.417-.2A1.944,1.944,0,0,1-618.714,266.228Z" transform="translate(671.823 -246.052)" fill="#1f1d59"/>
    <path id="Path_927" data-name="Path 927" d="M-591.1,374.818a1.025,1.025,0,0,1,1.029,1.137.991.991,0,0,1-1.038,1.031,1.017,1.017,0,0,1-1.111-1.078A1.046,1.046,0,0,1-591.1,374.818Z" transform="translate(609.534 -346.811)" fill="#1f1d59"/>
  </g>
</svg>
