<svg width="27" height="27" viewBox="0 0 27 27" fill="none" xmlns="http://www.w3.org/2000/svg">
<path d="M18.0192 17.0479C19.4696 15.3117 20.2845 13.1327 20.3293 10.8708C20.3741 8.60885 19.6461 6.39929 18.2655 4.607C16.885 2.8147 14.9344 1.54687 12.736 1.01286C10.5375 0.47886 8.22269 0.710631 6.17376 1.6699C4.12484 2.62917 2.46435 4.25856 1.46652 6.28899C0.468698 8.31942 0.193214 10.6295 0.685567 12.8376C1.17792 15.0457 2.40866 17.0199 4.17454 18.4341C5.94042 19.8483 8.13582 20.618 10.3982 20.6159C12.7343 20.6195 14.9959 19.7947 16.7812 18.2879L24.5152 26.0219C24.6849 26.1905 24.9144 26.2852 25.1537 26.2852C25.3929 26.2852 25.6225 26.1905 25.7922 26.0219C25.9552 25.8493 26.046 25.6209 26.046 25.3834C26.046 25.146 25.9552 24.9176 25.7922 24.7449L18.0192 17.0479ZM10.3602 18.8159C8.74886 18.8159 7.17372 18.3381 5.83396 17.4429C4.49419 16.5477 3.44997 15.2753 2.83334 13.7867C2.21671 12.298 2.05538 10.6599 2.36973 9.07954C2.68408 7.49918 3.46001 6.04752 4.59939 4.90814C5.73877 3.76876 7.19042 2.99284 8.77079 2.67848C10.3512 2.36413 11.9892 2.52546 13.4779 3.14209C14.9666 3.75872 16.239 4.80294 17.1342 6.14271C18.0294 7.48247 18.5072 9.05762 18.5072 10.6689C18.5081 11.7391 18.298 12.7989 17.8889 13.7878C17.4798 14.7766 16.8797 15.6751 16.123 16.4318C15.3663 17.1885 14.4679 17.7886 13.479 18.1977C12.4901 18.6068 11.4303 18.8169 10.3602 18.8159Z" fill="#1F1D59"/>
</svg>
