<svg id="Group_569" data-name="Group 569" xmlns="http://www.w3.org/2000/svg" width="56.358" height="56.406" viewBox="0 0 56.358 56.406">
  <path id="Path_935" data-name="Path 935" d="M-468.735,330.7c1.081-3.274,3.2-4.369,6.376-3.281.739-2.165,2.153-3.569,4.579-3.42,2.072.128,3.307,1.407,3.938,3.4.225-.061.426-.106.622-.169a4.248,4.248,0,0,1,5.74,4.057c.057,3.3.016,6.61.018,9.916q0,.6,0,1.2l.286.24a3.165,3.165,0,0,1,.411-.732,4.281,4.281,0,0,1,5.061-.871,4.292,4.292,0,0,1,2.342,4.579c-.6,3.247-1.2,6.5-1.972,9.708a14.652,14.652,0,0,1-4.88,7.948,6.42,6.42,0,0,0-2.557,6.176,45.789,45.789,0,0,1,.041,5.174c0,.826-.064,1.663-1.133,1.637s-1.1-.881-1.093-1.694c.006-2.828-.046-5.657.038-8.482a3.519,3.519,0,0,1,.78-1.924,23.1,23.1,0,0,1,2.394-2.43,15.393,15.393,0,0,0,4.73-8.984c.4-2.387.93-4.753,1.391-7.13a2.13,2.13,0,0,0-1.524-2.742,2.109,2.109,0,0,0-2.605,1.736c-.283,1.025-.524,2.062-.785,3.093a1.527,1.527,0,0,1-1.824,1.347,1.543,1.543,0,0,1-1.315-1.755q0-7.823,0-15.645c0-1.367-.588-2.2-1.632-2.41-1.412-.281-2.483.687-2.49,2.306-.018,4.3.059,8.6-.065,12.889-.033,1.132.928,3.21-1.032,3.236-1.983.026-1.071-2.06-1.093-3.19-.1-5.14-.037-10.282-.036-15.424a8.058,8.058,0,0,0-.029-1.1A2.059,2.059,0,0,0-458,326.184a1.98,1.98,0,0,0-2.065,1.746c-.1,1.019-.062,2.053-.063,3.08q0,4.187.011,8.373c0,.816-.063,1.683-1.1,1.7s-1.154-.836-1.155-1.661c0-2.608,0-5.215-.005-7.823-.006-1.517-.723-2.367-1.981-2.389-1.306-.023-2.075.851-2.085,2.406-.011,1.726,0,3.452,0,5.178,0,.808-.176,1.539-1.157,1.53-.927-.009-1.079-.717-1.074-1.48,0-.734.024-1.47-.008-2.2a2.014,2.014,0,0,0-1.831-2.113,1.987,1.987,0,0,0-2.246,1.786c-.133.787-.4,1.413-1.29,1.287-.974-.138-1.021-.924-.9-1.7C-474.641,331.75-472.375,329.347-468.735,330.7Z" transform="translate(495.652 -323.957)" fill="#1f1d59"/>
  <path id="Path_936" data-name="Path 936" d="M-561.036,394.636c0-3.625-.023-7.029.008-10.433a4,4,0,0,1,3.533-4.113,13.641,13.641,0,0,1,2.489.191,4.108,4.108,0,0,1,4.149-3.058,4.089,4.089,0,0,1,3.906,3.148c3.353-.753,4.937.061,6.061,3.133.3-.076.6-.16.909-.233a4,4,0,0,1,4.959,3.554c.121,1.792.053,3.6.053,5.4,0,.717-.313,1.236-1.094,1.235s-1.1-.538-1.111-1.238c-.028-1.358-.012-2.718-.014-4.077q0-2.813-1.9-2.77c-1.237.027-1.843.923-1.844,2.726,0,1.175-.005,2.351,0,3.526,0,.78-.2,1.448-1.12,1.431-.909-.017-1.112-.681-1.109-1.461q.01-3.526,0-7.052c0-1.406-.7-2.265-1.82-2.294-1.166-.03-1.911.86-1.917,2.318q-.012,3.471,0,6.942c0,.8-.115,1.555-1.117,1.545s-1.114-.762-1.112-1.562q.013-4.848.007-9.7c0-1.491-.7-2.358-1.864-2.363s-1.887.875-1.89,2.348c-.006,3.159,0,6.318.005,9.476,0,.82.083,1.773-1.082,1.792s-1.14-.9-1.138-1.744q.008-3.251,0-6.5c0-1.661-.682-2.576-1.9-2.555s-1.851.923-1.852,2.61q0,6.832,0,13.664c0,.294.009.588-.007.881a1.474,1.474,0,0,1-1.374,1.579,1.473,1.473,0,0,1-1.691-1.238c-.248-.921-.454-1.853-.69-2.778-.36-1.414-1.256-2.081-2.416-1.812s-1.667,1.222-1.386,2.671q.7,3.621,1.411,7.24a13.789,13.789,0,0,0,3.838,7.292l.623.624c3.166,3.163,3.161,3.163,2.868,7.58-.047.7-.268,1.27-1.043,1.3-.833.035-1.134-.542-1.183-1.288a2.343,2.343,0,0,1,0-.55c.411-2.35-.466-4.069-2.284-5.607-3.367-2.851-4.776-6.762-5.427-11.013-.25-1.631-.62-3.244-.934-4.865-.472-2.442.172-4.164,1.92-5.141C-564.827,392.4-563.1,392.746-561.036,394.636Z" transform="translate(568.674 -365.457)" fill="#1f1d59"/>
  <path id="Path_937" data-name="Path 937" d="M-446.274,482.459a15.362,15.362,0,0,1-5.083,12,3.531,3.531,0,0,0-1.324,3.253,5.63,5.63,0,0,1-.044,2.078c-.111.427-.695,1.085-.962,1.038-.44-.077-1.1-.613-1.133-1a29.341,29.341,0,0,1-.017-4.506c.028-.437.47-.877.788-1.261,1.237-1.491,2.627-2.873,3.72-4.461a11.2,11.2,0,0,0,1.8-6.149c.031-1.1.023-2.2.021-3.3,0-.8.162-1.556,1.134-1.553.988,0,1.11.772,1.1,1.568C-446.283,480.822-446.274,481.483-446.274,482.459Z" transform="translate(479.99 -444.486)" fill="#1f1d59"/>
  <path id="Path_938" data-name="Path 938" d="M-521.287,330.787c-.275.35-.464.83-.757.905a1.63,1.63,0,0,1-1.291-.211c-.971-.837-1.844-1.789-2.753-2.7q-1.4-1.4-2.8-2.805c-.528-.525-.793-1.122-.223-1.736.631-.681,1.248-.372,1.8.183,1.765,1.768,3.538,3.527,5.29,5.306A7.976,7.976,0,0,1-521.287,330.787Z" transform="translate(538.083 -323.853)" fill="#1f1d59"/>
  <path id="Path_939" data-name="Path 939" d="M-486.451,326.736c0,.438.143.95-.035,1.295a2.019,2.019,0,0,1-1.112,1.056c-.277.053-.937-.592-1-.994a8.78,8.78,0,0,1,0-2.827c.066-.4.725-1.041,1-.987a1.947,1.947,0,0,1,1.105,1.053,3.565,3.565,0,0,1,.038,1.4Z" transform="translate(506.339 -324.183)" fill="#1f1d59"/>
  <path id="Path_940" data-name="Path 940" d="M-526.7,367.2a3.835,3.835,0,0,1-1.409-.038c-.394-.169-.9-.641-.906-.993a1.361,1.361,0,0,1,.816-1.058,10.934,10.934,0,0,1,3.05-.009c.351.049.9.72.857,1.029a1.77,1.77,0,0,1-1,1.041,3.739,3.739,0,0,1-1.409.038Z" transform="translate(537.76 -355.926)" fill="#1f1d59"/>
  <path id="Path_941" data-name="Path 941" d="M-423.064,462.082c-.691.509-1.144,1.086-1.468,1.021-.436-.087-.772-.671-1.151-1.041.388-.354.74-.918,1.176-.993C-424.177,461.012-423.739,461.58-423.064,462.082Z" transform="translate(457.2 -430.822)" fill="#1f1d59"/>
  <path id="Path_942" data-name="Path 942" d="M-364.18,569.2c.276.4.717.78.789,1.217a.876.876,0,0,1-1.048,1.062,1.506,1.506,0,0,1-1.01-1.008c-.021-.415.5-.857.793-1.288Z" transform="translate(410.243 -515.108)" fill="#1f1d59"/>
</svg>
