<svg xmlns="http://www.w3.org/2000/svg" width="6.079" height="10.349" viewBox="0 0 6.079 10.349">
  <path id="Path_922" data-name="Path 922" d="M233.808,25.053a1.679,1.679,0,0,1-.685-.576.54.54,0,0,1,.008-.674,1.515,1.515,0,0,1,.116-.126q1.852-1.854,3.706-3.7a.834.834,0,0,1,.1-.076c-.046-.049-.076-.076-.1-.105l-3.731-3.735a.533.533,0,0,1-.123-.718,2.848,2.848,0,0,1,.546-.545.509.509,0,0,1,.636.052.963.963,0,0,1,.082.076l4.513,4.513a.572.572,0,0,1,.132.731.836.836,0,0,1-.133.164q-2.256,2.258-4.514,4.51a1.9,1.9,0,0,1-.331.215Z" transform="translate(-233.009 -14.706)" fill="#1f1d59"/>
</svg>
