<svg xmlns="http://www.w3.org/2000/svg" width="30.23" height="30.189" viewBox="0 0 30.23 30.189">
  <path id="Path_54" data-name="Path 54" d="M638.335,271.876h-.472c-.143-.064-.289-.122-.429-.192l-5.036-2.519q-4.31-2.156-8.623-4.308a1.32,1.32,0,0,1-.716-.7,1.174,1.174,0,0,1,.628-1.5q2.237-1.126,4.481-2.242c.09-.046.176-.1.3-.167-.145-.075-.239-.126-.335-.175q-2.189-1.093-4.378-2.185a1.29,1.29,0,0,1-.7-.717,1.181,1.181,0,0,1,.657-1.493q2.227-1.118,4.456-2.229c.09-.045.178-.1.305-.165-.144-.076-.237-.128-.332-.175q-2.187-1.094-4.377-2.186a1.281,1.281,0,0,1-.716-.742,1.192,1.192,0,0,1,.711-1.5q6.763-3.382,13.523-6.769a1.658,1.658,0,0,1,1.641,0c3.367,1.7,6.747,3.381,10.122,5.067l3.428,1.713a1.1,1.1,0,0,1,.682.763,1.176,1.176,0,0,1-.752,1.484q-2.173,1.09-4.349,2.176c-.093.046-.181.1-.306.17.127.07.217.123.31.17q2.189,1.094,4.377,2.188a1.132,1.132,0,0,1,.74,1.032,1.173,1.173,0,0,1-.734,1.215c-1.471.726-2.937,1.465-4.4,2.2-.09.046-.176.1-.3.167.145.074.239.125.335.174,1.449.725,2.9,1.447,4.347,2.181a1.7,1.7,0,0,1,.538.4,1.205,1.205,0,0,1-.483,1.829q-3.372,1.693-6.749,3.376Q642.032,270.046,638.335,271.876ZM649.374,249.8c-.089-.056-.126-.085-.168-.106q-5.458-2.728-10.922-5.449a.516.516,0,0,0-.4.015q-5.411,2.691-10.813,5.4c-.072.036-.139.082-.232.139.118.065.195.109.274.148q5.353,2.674,10.7,5.352a.56.56,0,0,0,.571,0q4.385-2.2,8.779-4.393C647.886,250.549,648.6,250.188,649.374,249.8Zm-22.555,6.95c.109.062.164.1.223.126q5.43,2.716,10.865,5.421a.549.549,0,0,0,.429-.016q5.4-2.683,10.783-5.387c.073-.037.143-.083.242-.142-.12-.066-.2-.114-.289-.157-1.248-.624-2.5-1.244-3.742-1.876a.51.51,0,0,0-.518,0c-2,1.008-4.009,2-6.007,3.011a1.453,1.453,0,0,1-1.428-.007c-2-1.015-4-2.011-6.009-3.006a.5.5,0,0,0-.376-.04C629.616,255.351,628.247,256.039,626.819,256.752Zm22.574,6.974c-1.4-.7-2.725-1.356-4.048-2.027a.53.53,0,0,0-.544,0c-2,1.008-4.008,2-6.007,3.011a1.434,1.434,0,0,1-1.4,0c-2-1.014-4.006-2.006-6.007-3.013a.484.484,0,0,0-.492-.011c-1.27.645-2.545,1.279-3.819,1.917-.073.037-.141.083-.237.141.111.061.187.106.264.145q5.377,2.689,10.753,5.38a.488.488,0,0,0,.493,0q5.044-2.531,10.094-5.052Z" transform="translate(-622.977 -241.688)" fill="#1f1d59"/>
</svg>
