<svg width="52" height="50" viewBox="0 0 52 50" fill="none" xmlns="http://www.w3.org/2000/svg">
<path d="M42 0H10C4.47715 0 0 4.47715 0 10V40C0 45.5228 4.47715 50 10 50H42C47.5228 50 52 45.5228 52 40V10C52 4.47715 47.5228 0 42 0Z" fill="#FFCE60"/>
<path d="M41.127 20.271L31.875 26.259C32.2139 26.4056 32.5358 26.5887 32.835 26.805C34.947 28.805 37.041 30.827 39.135 32.842C39.283 32.984 39.512 33.106 39.56 33.277C39.6244 33.6112 39.6579 33.9507 39.66 34.291C39.296 34.284 38.798 34.428 38.589 34.246C37.439 33.24 36.36 32.156 35.258 31.097L31.001 27.008C30.059 27.4121 29.094 27.7603 28.111 28.051C27.0869 28.2895 26.0242 28.3116 24.991 28.1158C23.9578 27.9201 22.9769 27.5107 22.111 26.914C18.426 24.541 14.757 22.143 11.067 19.777C10.8517 19.6586 10.675 19.4807 10.5581 19.2645C10.4413 19.0483 10.3891 18.803 10.408 18.558C10.3706 18.0494 10.4429 17.5386 10.62 17.0603C10.797 16.582 11.0746 16.1473 11.4341 15.7855C11.7936 15.4238 12.2265 15.1434 12.7037 14.9634C13.1809 14.7834 13.6912 14.7079 14.2 14.742C22.3707 14.736 30.5414 14.736 38.712 14.742C39.2205 14.6978 39.7324 14.7645 40.2125 14.9375C40.6927 15.1106 41.1295 15.3858 41.4928 15.7442C41.8562 16.1026 42.1374 16.5356 42.3169 17.0133C42.4965 17.491 42.5703 18.002 42.533 18.511C42.5397 23.4883 42.5397 28.4657 42.533 33.443C42.5731 33.952 42.5023 34.4636 42.3255 34.9425C42.1486 35.4214 41.8699 35.8563 41.5086 36.217C41.1473 36.5777 40.7121 36.8558 40.2329 37.0319C39.7537 37.208 39.2419 37.278 38.733 37.237C31.447 37.2423 24.1614 37.2423 16.876 37.237C16.67 37.237 16.406 37.306 16.269 37.207C16.016 37.024 15.707 36.757 15.669 36.494C15.645 36.305 15.994 35.994 16.243 35.866C16.4991 35.7983 16.7667 35.7857 17.028 35.829C24.1667 35.829 31.305 35.829 38.443 35.829C40.363 35.829 41.108 35.083 41.108 33.164C41.108 29.2113 41.108 25.2587 41.108 21.306L41.127 20.271ZM26.505 16.151C22.433 16.151 18.3614 16.151 14.29 16.151C13.7877 16.0922 13.2806 16.2096 12.8553 16.4832C12.4299 16.7568 12.1128 17.1696 11.958 17.651C11.8538 17.8771 11.839 18.1344 11.9168 18.3709C11.9945 18.6075 12.159 18.8058 12.377 18.926C15.977 21.217 19.534 23.572 23.147 25.841C24.1201 26.5057 25.2693 26.865 26.4477 26.873C27.626 26.8811 28.78 26.5374 29.762 25.886C33.438 23.608 37.046 21.221 40.662 18.84C40.7995 18.7156 40.9066 18.5613 40.9751 18.3889C41.0436 18.2166 41.0716 18.0309 41.057 17.846C40.9592 17.3181 40.6628 16.8478 40.2289 16.5316C39.795 16.2154 39.2565 16.0774 38.724 16.146C34.6494 16.144 30.576 16.1453 26.504 16.15L26.505 16.151Z" fill="#1F1D59"/>
<path d="M19.9721 31.7009C21.8561 31.7009 23.7401 31.7009 25.6241 31.7009C26.0881 31.7009 26.5531 31.7489 26.5741 32.3159C26.5981 32.9399 26.1181 33.0059 25.6181 33.0049C21.8501 32.9996 18.0834 32.9996 14.3181 33.0049C13.8561 33.0049 13.3911 32.9619 13.3691 32.3899C13.3441 31.7599 13.8271 31.6999 14.3241 31.7019C16.2001 31.7039 18.0881 31.7009 19.9721 31.7009Z" fill="#1F1D59"/>
<path d="M14.9088 28.759C13.5878 28.759 12.2658 28.754 10.9448 28.759C10.4708 28.759 10.0288 28.683 10.0278 28.108C10.0268 27.533 10.4688 27.4551 10.9418 27.4561C13.6085 27.4614 16.2782 27.4614 18.9508 27.4561C19.4218 27.4561 19.8648 27.5241 19.8658 28.1061C19.8668 28.6881 19.4258 28.7611 18.9528 28.7581C17.6048 28.7551 16.2568 28.759 14.9088 28.759Z" fill="#1F1D59"/>
<path d="M10.6319 24.519C9.8523 24.553 9.07142 24.5433 8.2929 24.49C8.11651 24.4613 7.94952 24.3908 7.80584 24.2846C7.66217 24.1783 7.54599 24.0392 7.46691 23.879C7.36691 23.392 7.7909 23.219 8.2529 23.22C9.86823 23.224 11.4836 23.224 13.0989 23.22C13.5609 23.22 13.9249 23.368 13.9089 23.891C13.8929 24.414 13.5039 24.523 13.0549 24.519C12.2469 24.515 11.4399 24.519 10.6319 24.519Z" fill="#1F1D59"/>
</svg>
