<svg width="34" height="27" viewBox="0 0 34 27" fill="none" xmlns="http://www.w3.org/2000/svg">
<path id="Path 1088" d="M22.5547 26V23.222C22.5547 21.7485 21.9693 20.3353 20.9274 19.2933C19.8854 18.2514 18.4722 17.666 16.9987 17.666H7.27768C5.80414 17.666 4.39095 18.2514 3.34899 19.2933C2.30704 20.3353 1.72168 21.7485 1.72168 23.222V26H22.5547ZM23.9437 12.111L26.7217 14.889L32.2777 9.333L23.9437 12.111ZM17.6937 6.556C17.6937 7.65492 17.3678 8.72915 16.7573 9.64285C16.1467 10.5566 15.2789 11.2687 14.2636 11.6892C13.2484 12.1097 12.1312 12.2196 11.0534 12.0052C9.9756 11.7907 8.98562 11.2615 8.20864 10.4843C7.43166 9.70721 6.90258 8.71713 6.68831 7.63931C6.47405 6.56148 6.58422 5.44433 7.00489 4.42912C7.42557 3.41391 8.13785 2.54625 9.05166 1.93587C9.96547 1.32549 11.0398 0.999802 12.1387 1C13.612 1.00027 15.025 1.58575 16.0667 2.62767C17.1085 3.66959 17.6937 5.08263 17.6937 6.556Z" stroke="#F4F4F4" stroke-width="2" stroke-linecap="round" stroke-linejoin="round"/>
</svg>
